# xmcd
#
# Track frame offsets: 
#        150
#        18736
#        34223
#        48848
#        60938
#        76960
#        97973
#        114605
#        130795
#        147592
#        161402
#        176348
#        190028
#        205453
#        220820
#        234198
#        249657
#        261594
#        279362
#        297116
#
# Disc length: 4167 seconds
#
# Revision: 0
# Processed by: cddbd v1.5.2PL0 Copyright (c) Steve Scherf et al.
# Submitted via: ExactAudioCopyFreeDBPlugin 1.0
#
DISCID=1c104514
DTITLE=Various Artist - Beaut Ute Anthems 2017
DYEAR=2017
DGENRE=Country
TTITLE0=Choirboys - Run To Paradise
TTITLE1=Travis Collins - What Happens On The Road
TTITLE2=Brooks and Dunn - Play Something Country
TTITLE3=Jody Direen - Dirt Rich
TTITLE4=Adam Brand and The Outlaws - Fat Bottom Girls
TTITLE5=Australian Crawl - The Boys Light Up
TTITLE6=The McClymonts - Wrapped Up Good
TTITLE7=Drew McAlister - In A Band
TTITLE8=Caitlyn Shadbolt - Right Kind Of Wrong
TTITLE9=Jasmine Rae - I'm Your Girl
TTITLE10=Warrant - Cherry Pie
TTITLE11=McAlister Kemp - Country Proud
TTITLE12=Morgan Evans - Best I Never Had
TTITLE13=Carrie Underwood - Dirty Laundry
TTITLE14=Christie Lamb - Flamethrower
TTITLE15=Dragon - April Sun In Cuba
TTITLE16=Doc Walker - Leave It All On The Dance Floor
TTITLE17=The Road Hammers - Keep On Truckin'
TTITLE18=Lachlan Bryan and The Wildes - The King and I
TTITLE19=Route 33 - Good Time
EXTD=
EXTT0=
EXTT1=
EXTT2=
EXTT3=
EXTT4=
EXTT5=
EXTT6=
EXTT7=
EXTT8=
EXTT9=
EXTT10=
EXTT11=
EXTT12=
EXTT13=
EXTT14=
EXTT15=
EXTT16=
EXTT17=
EXTT18=
EXTT19=
PLAYORDER=
